<svg width="100%" height="100%" viewBox="0 0 1024 768" version="1.1" xmlns="http://www.w3.org/2000/svg">
    <g id="land" fill="none" stroke="rgb(0,0,0)" stroke-width="1px">
        <path d="M1024,35L884,107L870,131L833,119L839,93L820,85L825,65L872,37L867,20L803,47L803,105L787,155L712,241L726,293L680,321L620,315L635,292L622,278L587,297L399,326L391,306L317,321L315,344L213,433L187,439L159,470L104,476L101,531L119,525L133,541L149,542L160,527L202,527L244,557L259,546L270,491L292,487L303,506L385,476L439,460L458,475L503,437L562,428L601,450L639,438L653,455L610,496L610,554L670,617L710,614L769,512L824,499L830,469L791,448L808,384L825,384L827,428L840,408L877,421L851,444L900,441L988,447L1002,406L1024,384"/>
        <path d="M506,485L438,494L427,533L372,547L350,523L319,536L312,576L276,608L313,715L348,720L391,632L444,610L495,650L563,564L548,511L506,485Z"/>
        <path d="M598,456L556,500L591,506L598,456Z"/>
        <path d="M0,583L37,585L48,545L101,541L120,581L157,595L181,581L199,603L168,630L179,645L205,635L228,699L203,727L194,768"/>
        <path d="M625,479L631,473L628,470L622,476L625,479Z"/>
    </g>
    <g id="lake" fill="rgb(200,250,255)" stroke="rgb(0,0,0)" stroke-width="1px">
        <path d="M738,317L753,345L706,385L738,317Z"/>
        <path d="M385,311L391,327L372,331L366,315L385,311Z"/>
        <path d="M368,332L362,316L339,321L344,337L368,332Z"/>
    </g>
    <g id="line" fill="none" stroke-width="3px">
        <g id="shikoku">
            <path id="yosan-utazu-iyo-saijyo" d="M454,495L448,497L441,499L431,536L373,553" stroke="rgb(253,176,24)"/>
            <path id="yosan-utazu-takamatsu" d="M454,495L505,488L454,495Z" stroke="rgb(253,176,24)"/>
            <path id="dosan-tadotsu-awa-ikeda" d="M452,537L448,497" stroke="rgb(226,89,133)"/>
            <path id="iyonada" d="M373,553L349,528L323,539L318,578L309,606L284,616L299,650" stroke="rgb(253,176,24)"/>
            <path id="uchiko" d="M318,578L293,596L309,606" stroke="rgb(151,170,215)"/>
            <path id="yodo" d="M298,646L364,663" stroke="rgb(0,145,87)"/>
            <path id="nakamura-sukumo" d="M315,694L362,680L364,663" stroke="rgb(158,159,162)"/>
            <path id="dosan-awaikeda-kubokawa" d="M364,663L388,611L438,602L452,537" stroke="rgb(226,89,133)"/>
            <path id="gomen-nahari" d="M438,602L477,626" stroke="rgb(158,159,162)"/>
            <path id="koutoku" d="M499,489L537,523L545,529" stroke="rgb(138,197,63)"/>
            <path id="naruto" d="M537,523L546,513" stroke="rgb(141,45,95)"/>
            <path id="tokushima" d="M452,537L541,526" stroke="rgb(44,101,130)"/>
            <path id="mugi" d="M545,529L555,565L519,610" stroke="rgb(6,186,179)"/>
        </g>
        <g id="honsyu">
            <path d="M98,548L103,528L107,526L118,522L137,522L158,523" stroke="rgb(0,107,182)"/>
            <path d="M158,523L204,523L213,529L242,548L255,544L263,501" stroke="rgb(0,107,182)"/>
            <path d="M263,501L265,490L284,481L290,479" stroke="rgb(203,59,59)"/>
            <path d="M290,479L364,480" stroke="rgb(100,177,77)"/>
            <path d="M364,480L399,467" stroke="rgb(0,173,238)"/>
            <path d="M399,467L447,449L466,443" stroke="rgb(247,144,55)"/>
            <path d="M466,443L479,435L514,413" stroke="rgb(176,209,54)"/>
            <path d="M514,413L539,418L559,421" stroke="rgb(0,113,190)"/>
            <path d="M559,421L588,437L602,444L619,438L634,433L645,435L660,438L667,428L690,396L697,395L706,394L728,375L764,345" stroke="rgb(0,113,190)"/>
            <path d="M764,345L801,343L823,369L852,403L904,433L938,433" stroke="rgb(224,121,32)"/>
            <path d="M619,438L621,442" stroke="rgb(148,143,127)"/>
            <path d="M660,438L654,446L656,456L670,456L671,435L660,438Z" stroke="rgb(231,40,65)"/>
            <path d="M650,448L654,446" stroke="rgb(7,50,142)"/>
            <path d="M670,456L656,468L638,484L630,490L631,499L622,506" stroke="rgb(248,157,8)"/>
            <path d="M656,468L651,463" stroke="rgb(148,143,127)"/>
            <path d="M638,484L627,474" stroke="rgb(0,133,190)"/>
            <path d="M622,506L616,506" stroke="rgb(148,143,127)"/>
            <path d="M699,433L689,422L671,435L665,441L645,439L645,435" stroke="rgb(229,47,130)"/>
            <path d="M645,435L637,419L617,410L618,383L605,374L614,351" stroke="rgb(252,200,0)"/>
            <path d="M622,506L684,491L688,457" stroke="rgb(243,168,190)"/>
            <path d="M663,451L670,456L681,458L688,457L699,433L701,430" stroke="rgb(0,163,105)"/>
            <path d="M690,396L699,433" stroke="rgb(189,125,23)"/>
            <path d="M684,491L700,488L699,433" stroke="rgb(207,17,38)"/>
            <path d="M728,375L750,419" stroke="rgb(94,173,60)"/>
            <path d="M681,458L672,428L667,428" stroke="rgb(52,114,147)"/>
            <path d="M622,506L618,554L671,609L707,610L721,586" stroke="rgb(0,169,190)"/>
            <path d="M721,586L789,464" stroke="rgb(88,89,91)"/>
            <path d="M822,472L789,464L779,430" stroke="rgb(88,89,91)"/>
            <path d="M823,369L801,379L791,407L775,414L779,430" stroke="rgb(22,182,143)"/>
            <path d="M588,437L605,374" stroke="rgb(0,166,133)"/>
            <path d="M791,407L779,430" stroke="rgb(128,128,128)"/>
            <path d="M701,430L750,419L775,414" stroke="rgb(74,58,147)"/>
            <path d="M801,343L858,309L869,238" stroke="rgb(158,24,19)"/>
            <path d="M860,141L869,238" stroke="rgb(0,61,140)"/>
            <path d="M559,421L581,344" stroke="rgb(177,23,75)"/>
            <path d="M690,396L688,390L669,391L656,376L646,354L614,351L581,344L576,313L575,304" stroke="rgb(123,134,192)"/>
            <path d="M575,304L505,315" stroke="rgb(164,201,85)"/>
            <path d="M505,315L405,330L398,331" stroke="rgb(164,201,85)"/>
            <path d="M389,309L398,331" stroke="rgb(30,105,171)"/>
            <path d="M398,331L346,341L322,345L215,439" stroke="rgb(234,98,53)"/>
            <path d="M215,439L190,444L162,476L131,479L109,481L107,526" stroke="rgb(127,115,60)"/>
            <path d="M466,443L440,438" stroke="rgb(247,164,181)"/>
            <path d="M526,342L505,334" stroke="rgb(128,128,128)"/>
            <path d="M646,354L650,322L665,324" stroke="rgb(245,161,0)"/>
            <path d="M665,324L681,326L727,300" stroke="rgb(0,61,140)"/>
            <path d="M447,449L440,438L411,393L395,367L416,352L405,330" stroke="rgb(54,146,75)"/>
            <path d="M505,315L505,334L503,361L484,364L479,383" stroke="rgb(177,121,64)"/>
            <path d="M345,420L387,453" stroke="rgb(74,71,157)"/>
            <path d="M387,453L398,456L399,467" stroke="rgb(74,71,157)"/>
            <path d="M398,456L440,438" stroke="rgb(128,128,128)"/>
            <path d="M158,523L147,538L138,533L137,522" stroke="rgb(176,40,88)"/>
            <path d="M130,522L133,534L138,533" stroke="rgb(104,96,170)"/>
            <path d="M133,534L133,539" stroke="rgb(104,96,170)"/>
            <path d="M130,522L131,479" stroke="rgb(214,0,128)"/>
            <path d="M131,479L131,475" stroke="rgb(127,115,60)"/>
            <path d="M479,435L525,422" stroke="rgb(242,98,103)"/>
            <path d="M525,422L539,418" stroke="rgb(0,113,190)"/>
            <path d="M466,443L479,383" stroke="rgb(254,189,21)"/>
            <path d="M559,421L511,398L479,383" stroke="rgb(222,68,25)"/>
            <path d="M479,383L411,393" stroke="rgb(222,68,25)"/>
            <path d="M290,479L304,501L364,480" stroke="rgb(209,136,48)"/>
            <path d="M411,393L388,409L373,389L369,393L345,420L336,419" stroke="rgb(141,126,186)"/>
            <path d="M336,419L290,466L290,479" stroke="rgb(141,126,186)"/>
            <path d="M369,393L346,341" stroke="rgb(246,182,56)"/>
            <path d="M158,523L215,439" stroke="rgb(242,112,82)"/>
            <path d="M229,493L247,510" stroke="rgb(179,180,182)"/>
            <path d="M284,481L283,464" stroke="rgb(0,177,194)"/>
            <path d="M614,351L619,318" stroke="rgb(128,128,128)"/>
            <path d="M650,322L619,318L576,313" stroke="rgb(128,128,128)"/>
            <path d="M793,161L744,235L727,300" stroke="rgb(0,61,140)"/>
            <path d="M727,300L736,311L764,345" stroke="rgb(0,113,190)"/>
            <path d="M821,171L835,138" stroke="rgb(0,61,140)"/>
            <path d="M835,138L837,126L828,120" stroke="rgb(0,61,140)"/>
            <path d="M802,156L810,111L829,94" stroke="rgb(0,61,140)"/>
            <path d="M829,94L815,87L821,65" stroke="rgb(242,175,13)"/>
            <path d="M736,311L697,395" stroke="rgb(2,167,225)"/>
            <path d="M932,91L940,127" stroke="rgb(0,61,140)"/>
            <path d="M744,235L807,264" stroke="rgb(0,61,140)"/>
            <path d="M793,161L811,151" stroke="rgb(0,167,227)"/>
            <path d="M811,151L835,138L860,141L912,105" stroke="rgb(0,165,86)"/>
            <path d="M912,105L932,91L974,72" stroke="rgb(255,105,180)"/>
            <path d="M503,361L511,398L514,413" stroke="rgb(128,128,128)"/>
            <path d="M213,529L247,510L263,501" stroke="rgb(0,166,99)"/>
            <path d="M466,443L456,457L454,495" stroke="rgb(0,124,194)"/>
            <path d="M456,457L471,461L456,457Z" stroke="rgb(121,204,206)"/>
        </g>
    </g>
</svg>
